<?xml version="1.0" encoding="utf-8"?>
<!-- Generator: Adobe Illustrator 24.1.3, SVG Export Plug-In . SVG Version: 6.00 Build 0)  -->
<svg version="1.1" id="레이어_1" xmlns="http://www.w3.org/2000/svg" xmlns:xlink="http://www.w3.org/1999/xlink" x="0px"
	 y="0px" viewBox="0 0 274.49 64.45" style="enable-background:new 0 0 274.49 64.45;" xml:space="preserve">
<g>
	<g>
		<path d="M8.32,29.44L0,0.69h3.71l6.39,22.74l6.37-22.72l3.73-0.02l6.39,22.74l6.37-22.74h3.73l-8.32,28.75h-3.55L18.35,6.9
			l-6.47,22.54H8.32z"/>
		<path d="M52.02,30.03c-2.12,0-3.96-0.47-5.54-1.41c-1.58-0.94-2.8-2.25-3.68-3.93c-0.88-1.68-1.32-3.65-1.32-5.9
			c0-2.35,0.43-4.39,1.3-6.12c0.86-1.72,2.07-3.05,3.62-3.99c1.55-0.94,3.37-1.41,5.46-1.41c2.17,0,4.02,0.5,5.54,1.5
			s2.67,2.42,3.43,4.27c0.77,1.85,1.09,4.05,0.99,6.61h-3.59v-1.28c-0.04-2.65-0.58-4.63-1.62-5.94c-1.04-1.31-2.58-1.97-4.63-1.97
			c-2.2,0-3.87,0.71-5.01,2.12c-1.14,1.41-1.72,3.43-1.72,6.07c0,2.54,0.57,4.51,1.72,5.91c1.15,1.4,2.77,2.1,4.89,2.1
			c1.42,0,2.66-0.33,3.71-0.98s1.88-1.59,2.48-2.82l3.41,1.18c-0.84,1.9-2.1,3.38-3.78,4.42C56,29.51,54.11,30.03,52.02,30.03z
			 M44.06,19.65V16.8h15.93v2.85H44.06z"/>
		<path d="M69.65,10.81V7.87h12.88v2.93H69.65z M73.3,29.44V6.7c0-0.55,0.02-1.11,0.07-1.7c0.05-0.58,0.17-1.15,0.36-1.71
			s0.5-1.06,0.93-1.53c0.49-0.53,1.03-0.92,1.62-1.16c0.58-0.24,1.18-0.39,1.79-0.44c0.6-0.05,1.18-0.08,1.73-0.08h2.73v2.95h-2.54
			c-1.05,0-1.84,0.26-2.36,0.78c-0.52,0.52-0.78,1.29-0.78,2.32v23.3H73.3z M86.72,4.06V0.39h3.55v3.67H86.72z M86.72,29.44V7.87
			h3.55v21.56H86.72z"/>
		<path d="M101.23,29.44V7.87h3.19v5.77h0.4v15.79H101.23z M116.6,29.44v-10.8c0-1.01-0.09-1.99-0.28-2.93
			c-0.19-0.95-0.5-1.8-0.94-2.56c-0.44-0.76-1.03-1.36-1.79-1.8c-0.75-0.44-1.7-0.66-2.84-0.66c-0.89,0-1.7,0.15-2.43,0.46
			c-0.72,0.31-1.35,0.76-1.87,1.37c-0.52,0.61-0.92,1.37-1.21,2.3c-0.29,0.93-0.43,2.01-0.43,3.26l-2.34-0.72
			c0-2.08,0.38-3.87,1.13-5.37c0.75-1.5,1.81-2.66,3.17-3.46c1.36-0.8,2.97-1.21,4.82-1.21c1.4,0,2.59,0.22,3.57,0.66
			c0.98,0.44,1.8,1.03,2.46,1.76c0.65,0.73,1.16,1.54,1.54,2.44c0.37,0.89,0.64,1.8,0.79,2.73c0.15,0.93,0.23,1.8,0.23,2.62v11.92
			H116.6z"/>
		<path d="M138.64,30.03c-2.01,0-3.73-0.5-5.17-1.5s-2.55-2.36-3.32-4.08c-0.78-1.72-1.17-3.66-1.17-5.82s0.39-4.09,1.17-5.81
			c0.78-1.72,1.89-3.07,3.32-4.06s3.15-1.49,5.15-1.49c2.04,0,3.75,0.5,5.13,1.49s2.43,2.34,3.15,4.05
			c0.71,1.71,1.07,3.65,1.07,5.82c0,2.16-0.36,4.09-1.07,5.81c-0.71,1.72-1.76,3.08-3.15,4.08
			C142.37,29.53,140.67,30.03,138.64,30.03z M139.08,26.78c1.45,0,2.64-0.35,3.57-1.05c0.93-0.7,1.62-1.66,2.07-2.9
			s0.67-2.63,0.67-4.2c0-1.58-0.23-2.99-0.68-4.21c-0.45-1.22-1.14-2.18-2.05-2.86s-2.07-1.03-3.48-1.03
			c-1.46,0-2.67,0.36-3.62,1.08c-0.95,0.72-1.66,1.69-2.12,2.91c-0.46,1.22-0.69,2.59-0.69,4.11c0,1.53,0.23,2.91,0.7,4.14
			c0.46,1.23,1.17,2.21,2.11,2.92C136.5,26.42,137.67,26.78,139.08,26.78z M145.39,29.44V13.56h-0.4V0.69h3.57v28.75H145.39z"/>
		<path d="M164.97,29.44l-7.82-21.56h3.59l6.05,17.03l6.03-17.03h3.61l-7.83,21.56H164.97z"/>
		<path d="M189.95,30.03c-1.61,0-2.96-0.3-4.04-0.89c-1.08-0.59-1.9-1.37-2.45-2.35c-0.55-0.97-0.83-2.04-0.83-3.19
			c0-1.13,0.21-2.11,0.64-2.93c0.43-0.83,1.03-1.52,1.83-2.08c0.79-0.56,1.73-1,2.82-1.32c1.03-0.28,2.17-0.52,3.43-0.73
			s2.55-0.4,3.85-0.57c1.3-0.17,2.53-0.34,3.67-0.5l-1.28,0.74c0.03-1.9-0.36-3.32-1.16-4.24c-0.8-0.92-2.18-1.39-4.15-1.39
			c-1.3,0-2.45,0.3-3.42,0.9c-0.98,0.6-1.67,1.56-2.07,2.88l-3.37-1.02c0.52-1.89,1.52-3.37,3.01-4.45
			c1.49-1.08,3.45-1.62,5.89-1.62c1.96,0,3.64,0.35,5.04,1.05c1.4,0.7,2.41,1.75,3.02,3.16c0.31,0.67,0.5,1.39,0.58,2.17
			c0.08,0.78,0.12,1.59,0.12,2.45v13.33h-3.15v-5.17l0.74,0.48c-0.81,1.76-1.95,3.08-3.41,3.96
			C193.79,29.59,192.03,30.03,189.95,30.03z M190.49,27.06c1.28,0,2.38-0.23,3.32-0.69c0.94-0.46,1.69-1.07,2.27-1.82
			c0.57-0.75,0.95-1.57,1.12-2.47c0.19-0.67,0.29-1.4,0.32-2.22c0.03-0.81,0.04-1.44,0.04-1.9l1.24,0.54
			c-1.16,0.17-2.3,0.33-3.42,0.48c-1.12,0.15-2.18,0.3-3.17,0.46s-1.89,0.35-2.69,0.58c-0.58,0.19-1.13,0.43-1.65,0.73
			c-0.51,0.3-0.93,0.68-1.24,1.14c-0.31,0.46-0.47,1.02-0.47,1.69c0,0.58,0.15,1.14,0.45,1.68c0.3,0.53,0.77,0.97,1.4,1.3
			C188.64,26.89,189.46,27.06,190.49,27.06z"/>
		<path d="M211.67,29.44V0.09h3.55v29.35H211.67z"/>
		<path d="M234.39,29.99c-1.4,0-2.59-0.22-3.57-0.66c-0.98-0.44-1.8-1.03-2.46-1.76c-0.65-0.73-1.16-1.54-1.54-2.44
			c-0.37-0.89-0.64-1.8-0.79-2.73c-0.15-0.93-0.23-1.8-0.23-2.62V7.87h3.59v10.8c0,1.01,0.09,1.99,0.28,2.93
			c0.19,0.95,0.5,1.8,0.95,2.56c0.45,0.76,1.04,1.36,1.8,1.8c0.75,0.44,1.69,0.66,2.83,0.66c0.89,0,1.7-0.15,2.43-0.46
			c0.72-0.31,1.35-0.76,1.87-1.37c0.52-0.61,0.92-1.37,1.21-2.31c0.29-0.93,0.43-2.02,0.43-3.25l2.34,0.72
			c0,2.08-0.38,3.87-1.13,5.37c-0.75,1.5-1.81,2.66-3.17,3.46C237.84,29.59,236.24,29.99,234.39,29.99z M241.57,29.44v-5.77h-0.4
			V7.87h3.57v21.56H241.57z"/>
		<path d="M264.67,30.03c-2.12,0-3.96-0.47-5.54-1.41c-1.58-0.94-2.8-2.25-3.68-3.93c-0.88-1.68-1.32-3.65-1.32-5.9
			c0-2.35,0.43-4.39,1.3-6.12c0.86-1.72,2.07-3.05,3.62-3.99c1.55-0.94,3.37-1.41,5.46-1.41c2.17,0,4.02,0.5,5.54,1.5
			c1.52,1,2.67,2.42,3.43,4.27c0.77,1.85,1.09,4.05,0.99,6.61h-3.59v-1.28c-0.04-2.65-0.58-4.63-1.62-5.94
			c-1.04-1.31-2.58-1.97-4.63-1.97c-2.2,0-3.87,0.71-5.01,2.12c-1.14,1.41-1.72,3.43-1.72,6.07c0,2.54,0.57,4.51,1.72,5.91
			c1.15,1.4,2.77,2.1,4.89,2.1c1.42,0,2.66-0.33,3.71-0.98s1.88-1.59,2.48-2.82l3.41,1.18c-0.84,1.9-2.1,3.38-3.78,4.42
			C268.65,29.51,266.76,30.03,264.67,30.03z M256.7,19.65V16.8h15.93v2.85H256.7z"/>
	</g>
	<g>
		<path d="M74.13,59.45l-4.16-14.37h1.86l3.19,11.37l3.18-11.36l1.87-0.01l3.19,11.37l3.18-11.37h1.87l-4.16,14.37h-1.78
			l-3.23-11.27l-3.23,11.27H74.13z"/>
		<path d="M95.98,59.75c-1.06,0-1.98-0.23-2.77-0.7c-0.79-0.47-1.4-1.12-1.84-1.97s-0.66-1.82-0.66-2.95c0-1.18,0.22-2.2,0.65-3.06
			c0.43-0.86,1.04-1.53,1.81-2c0.77-0.47,1.68-0.7,2.73-0.7c1.09,0,2.01,0.25,2.77,0.75c0.76,0.5,1.34,1.21,1.72,2.14
			c0.38,0.92,0.55,2.03,0.49,3.3h-1.8v-0.64c-0.02-1.32-0.29-2.31-0.81-2.97c-0.52-0.65-1.29-0.98-2.32-0.98
			c-1.1,0-1.93,0.35-2.51,1.06c-0.57,0.71-0.86,1.72-0.86,3.03c0,1.27,0.29,2.26,0.86,2.96c0.57,0.7,1.39,1.05,2.45,1.05
			c0.71,0,1.33-0.16,1.86-0.49c0.53-0.33,0.94-0.79,1.24-1.41l1.71,0.59c-0.42,0.95-1.05,1.69-1.89,2.21
			C97.97,59.49,97.03,59.75,95.98,59.75z M92,54.56v-1.43h7.97v1.43H92z"/>
		<path d="M105.59,59.45V45.08h1.79v6.44h-0.2v7.93H105.59z M110.55,59.75c-1.01,0-1.86-0.25-2.56-0.75
			c-0.69-0.5-1.22-1.18-1.57-2.04s-0.53-1.83-0.53-2.9c0-1.08,0.18-2.06,0.53-2.91c0.36-0.85,0.88-1.53,1.58-2.03
			c0.7-0.5,1.55-0.74,2.56-0.74c1,0,1.86,0.25,2.58,0.74c0.72,0.5,1.28,1.17,1.66,2.03c0.39,0.86,0.58,1.83,0.58,2.9
			c0,1.08-0.19,2.05-0.58,2.91c-0.39,0.86-0.94,1.54-1.66,2.04C112.41,59.51,111.55,59.75,110.55,59.75z M110.33,58.13
			c0.71,0,1.29-0.18,1.76-0.54s0.82-0.85,1.05-1.46c0.23-0.62,0.35-1.31,0.35-2.07c0-0.76-0.12-1.44-0.35-2.06
			c-0.23-0.61-0.58-1.1-1.06-1.46c-0.47-0.36-1.08-0.54-1.81-0.54c-0.7,0-1.28,0.17-1.74,0.51c-0.46,0.34-0.8,0.82-1.03,1.43
			c-0.23,0.61-0.34,1.31-0.34,2.11c0,0.78,0.11,1.49,0.33,2.1c0.22,0.62,0.57,1.1,1.03,1.45C109,57.95,109.6,58.13,110.33,58.13z"/>
		<path d="M129.62,59.75c-0.8,0-1.48-0.15-2.02-0.44c-0.54-0.3-0.95-0.69-1.23-1.17c-0.28-0.49-0.41-1.02-0.41-1.6
			c0-0.57,0.11-1.05,0.32-1.47c0.21-0.41,0.52-0.76,0.91-1.04c0.4-0.28,0.87-0.5,1.41-0.66c0.51-0.14,1.08-0.26,1.72-0.36
			c0.63-0.1,1.28-0.2,1.93-0.28c0.65-0.09,1.26-0.17,1.84-0.25l-0.64,0.37c0.01-0.95-0.18-1.66-0.58-2.12
			c-0.4-0.46-1.09-0.69-2.08-0.69c-0.65,0-1.22,0.15-1.71,0.45c-0.49,0.3-0.84,0.78-1.03,1.44l-1.69-0.51
			c0.26-0.95,0.76-1.69,1.51-2.23c0.75-0.54,1.73-0.81,2.95-0.81c0.98,0,1.82,0.18,2.52,0.52c0.7,0.35,1.21,0.88,1.51,1.58
			c0.15,0.33,0.25,0.69,0.29,1.08c0.04,0.39,0.06,0.8,0.06,1.22v6.67h-1.58v-2.58l0.37,0.24c-0.41,0.88-0.97,1.54-1.71,1.98
			C131.54,59.53,130.66,59.75,129.62,59.75z M129.89,58.27c0.64,0,1.19-0.12,1.66-0.34s0.85-0.53,1.13-0.91
			c0.29-0.38,0.47-0.79,0.56-1.23c0.09-0.33,0.15-0.7,0.16-1.11c0.01-0.41,0.02-0.72,0.02-0.95l0.62,0.27
			c-0.58,0.09-1.15,0.17-1.71,0.24c-0.56,0.07-1.09,0.15-1.59,0.23c-0.5,0.08-0.94,0.18-1.34,0.29c-0.29,0.09-0.57,0.21-0.82,0.36
			c-0.26,0.15-0.46,0.34-0.62,0.57c-0.16,0.23-0.23,0.51-0.23,0.84c0,0.29,0.07,0.57,0.22,0.84c0.15,0.27,0.38,0.48,0.7,0.65
			C128.96,58.18,129.38,58.27,129.89,58.27z"/>
		<path d="M144.51,59.75c-1,0-1.87-0.25-2.58-0.75c-0.72-0.5-1.27-1.18-1.66-2.04c-0.39-0.86-0.58-1.83-0.58-2.91
			c0-1.08,0.19-2.05,0.58-2.9c0.39-0.86,0.94-1.54,1.66-2.03c0.72-0.5,1.58-0.74,2.58-0.74c1.02,0,1.87,0.25,2.57,0.74
			c0.69,0.5,1.22,1.17,1.57,2.03c0.36,0.85,0.53,1.83,0.53,2.91c0,1.08-0.18,2.05-0.53,2.9s-0.88,1.54-1.57,2.04
			C146.38,59.5,145.52,59.75,144.51,59.75z M144.64,64.54c-0.57,0-1.12-0.09-1.66-0.26c-0.54-0.17-1.03-0.44-1.48-0.78
			c-0.45-0.35-0.82-0.79-1.12-1.32l1.63-0.86c0.27,0.52,0.64,0.91,1.13,1.15c0.49,0.24,0.99,0.36,1.51,0.36
			c0.69,0,1.25-0.13,1.7-0.38c0.45-0.25,0.78-0.62,1-1.11c0.22-0.49,0.33-1.1,0.32-1.84v-2.95h0.21v-7.89h1.58v10.85
			c0,0.3-0.01,0.58-0.03,0.85c-0.02,0.27-0.05,0.54-0.1,0.8c-0.14,0.77-0.42,1.4-0.83,1.89c-0.41,0.5-0.95,0.87-1.6,1.11
			C146.26,64.42,145.5,64.54,144.64,64.54z M144.73,58.13c0.73,0,1.32-0.18,1.79-0.52c0.47-0.35,0.81-0.83,1.03-1.45
			c0.22-0.61,0.33-1.32,0.33-2.1c0-0.79-0.11-1.49-0.34-2.11c-0.23-0.61-0.57-1.09-1.02-1.43c-0.45-0.34-1.04-0.51-1.74-0.51
			c-0.73,0-1.34,0.18-1.81,0.54c-0.48,0.36-0.83,0.85-1.06,1.46c-0.23,0.61-0.34,1.3-0.34,2.06c0,0.77,0.12,1.46,0.35,2.07
			c0.23,0.62,0.58,1.1,1.05,1.46S144.03,58.13,144.73,58.13z"/>
		<path d="M159.43,59.75c-1.06,0-1.98-0.23-2.77-0.7c-0.79-0.47-1.4-1.12-1.84-1.97s-0.66-1.82-0.66-2.95c0-1.18,0.22-2.2,0.65-3.06
			c0.43-0.86,1.04-1.53,1.81-2c0.77-0.47,1.68-0.7,2.73-0.7c1.09,0,2.01,0.25,2.77,0.75c0.76,0.5,1.34,1.21,1.72,2.14
			c0.38,0.92,0.55,2.03,0.49,3.3h-1.8v-0.64c-0.02-1.32-0.29-2.31-0.81-2.97c-0.52-0.65-1.29-0.98-2.32-0.98
			c-1.1,0-1.93,0.35-2.51,1.06c-0.57,0.71-0.86,1.72-0.86,3.03c0,1.27,0.29,2.26,0.86,2.96c0.57,0.7,1.39,1.05,2.45,1.05
			c0.71,0,1.33-0.16,1.86-0.49c0.53-0.33,0.94-0.79,1.24-1.41l1.71,0.59c-0.42,0.95-1.05,1.69-1.89,2.21
			C161.41,59.49,160.47,59.75,159.43,59.75z M155.44,54.56v-1.43h7.97v1.43H155.44z"/>
		<path d="M168.73,59.45V48.67h1.6v2.89h0.2v7.9H168.73z M176.41,59.45v-5.4c0-0.51-0.05-0.99-0.14-1.47
			c-0.09-0.47-0.25-0.9-0.47-1.28c-0.22-0.38-0.52-0.68-0.89-0.9c-0.38-0.22-0.85-0.33-1.42-0.33c-0.45,0-0.85,0.08-1.21,0.23
			s-0.67,0.38-0.93,0.68c-0.26,0.3-0.46,0.69-0.6,1.15c-0.14,0.46-0.21,1.01-0.21,1.63l-1.17-0.36c0-1.04,0.19-1.93,0.56-2.69
			c0.38-0.75,0.9-1.33,1.59-1.73c0.68-0.4,1.49-0.6,2.41-0.6c0.7,0,1.29,0.11,1.79,0.33c0.49,0.22,0.9,0.51,1.23,0.88
			c0.33,0.37,0.58,0.77,0.77,1.22c0.19,0.45,0.32,0.9,0.39,1.37c0.08,0.47,0.12,0.9,0.12,1.31v5.96H176.41z"/>
		<path d="M187.74,59.75c-1.09,0-2.02-0.24-2.78-0.73c-0.76-0.49-1.35-1.16-1.75-2.02c-0.4-0.86-0.61-1.84-0.61-2.94
			c0.01-1.12,0.22-2.1,0.63-2.96c0.41-0.86,1-1.52,1.77-2.01c0.77-0.48,1.69-0.72,2.77-0.72c1.14,0,2.12,0.28,2.94,0.84
			c0.82,0.56,1.37,1.32,1.65,2.3l-1.76,0.53c-0.23-0.63-0.6-1.11-1.11-1.46c-0.51-0.35-1.09-0.52-1.74-0.52
			c-0.74,0-1.35,0.17-1.83,0.52c-0.48,0.34-0.84,0.82-1.07,1.42c-0.23,0.6-0.35,1.29-0.36,2.07c0.01,1.2,0.29,2.17,0.83,2.9
			c0.54,0.74,1.35,1.1,2.42,1.1c0.71,0,1.29-0.16,1.75-0.48c0.46-0.32,0.82-0.79,1.06-1.4l1.8,0.47c-0.37,1-0.96,1.77-1.75,2.31
			C189.82,59.49,188.86,59.75,187.74,59.75z"/>
		<path d="M197.99,64.25l2.09-5.67l0.03,1.68l-4.71-11.58h1.87l3.69,9.31h-0.64l3.46-9.31h1.81l-5.87,15.57H197.99z"/>
	</g>
</g>
</svg>
